<?xml version="1.0" encoding="utf-8"?>
<!-- Generator: Adobe Illustrator 25.4.1, SVG Export Plug-In . SVG Version: 6.00 Build 0)  -->
<svg version="1.1" id="레이어_1" xmlns="http://www.w3.org/2000/svg" xmlns:xlink="http://www.w3.org/1999/xlink" x="0px"
	 y="0px" viewBox="0 0 947.4 768" style="enable-background:new 0 0 947.4 768;" xml:space="preserve">
<style type="text/css">
	.st0{fill:#571C1F;}
	.st1{fill:#E2C3B3;}
</style>
<g>
	<g>
		<g>
			<g>
				<path class="st0" d="M536.2,651.7C387,686.2,237.7,593,203.2,443.9c-34.5-149.1,58.7-298.5,207.9-333s298.5,58.7,333,207.9
					C778.5,467.8,685.3,617.2,536.2,651.7z M412.5,117.2c-145.6,33.7-236.7,179.6-203,325.2C243.2,588,389.1,679,534.7,645.4
					c145.6-33.7,236.6-179.6,203-325.1C704,174.6,558.1,83.5,412.5,117.2z"/>
				<path class="st0" d="M473.6,671.2c-131.8,0-251.4-90.7-282.4-224.5c-17.4-75.3-4.4-153,36.6-218.7
					c41-65.7,105.1-111.5,180.4-129c75.3-17.4,153-4.4,218.7,36.6c65.7,41,111.5,105.1,129,180.4c36,155.7-61.3,311.7-217,347.7l0,0
					C517,668.7,495.1,671.2,473.6,671.2z M473.6,122.5c-19.3,0-38.8,2.2-58.4,6.7c-67.2,15.6-124.4,56.5-161.1,115.2
					c-36.6,58.7-48.3,128.1-32.7,195.3c32.2,139,171.4,225.9,310.5,193.8c139-32.2,226-171.4,193.8-310.4
					C698.1,203.5,591.3,122.5,473.6,122.5z"/>
			</g>
		</g>
		<g>
			<path class="st0" d="M372.7,322.7c-6.9-22.5,0-44.6,15.3-49.3c15.3-4.7,33.3,9.8,40.2,32.4c6.9,22.5,0,44.6-15.3,49.3
				C397.6,359.8,379.6,345.3,372.7,322.7L372.7,322.7z"/>
		</g>
		<g>
			<path class="st0" d="M538.5,284.4c-3.7-23.3-19.6-40.1-35.4-37.5c-15.8,2.5-25.6,23.5-21.9,46.7c3.7,23.3,19.6,40.1,35.4,37.5
				C532.4,328.6,542.2,307.6,538.5,284.4L538.5,284.4z"/>
		</g>
		<g>
			<g>
				<path class="st0" d="M506.2,508c-110.8,25.6-169.2-63.8-169.8-64.6c-1.3-1.9-0.9-4.4,1-5.8c1.9-1.3,4.4-0.9,5.8,1
					c0.5,0.7,55.9,85.7,161.2,61.3c105.3-24.4,111.4-123.3,111.5-124.1c0.2-2.3,2.2-3.9,4.5-3.7c2.3,0.2,3.9,2.2,3.7,4.5
					C624,377.5,617.3,482.3,506.2,508L506.2,508z"/>
				<path class="st0" d="M466.7,516.3c-82.7,0-127.6-62.6-133.1-70.7c-2.5-3.5-1.7-8.3,1.8-10.8c3.5-2.5,8.3-1.7,10.8,1.8
					c5.9,8.7,59.1,82.7,157.5,59.9C603.8,473.2,612,379.6,612.3,375.6c0.4-4.4,4.3-7.5,8.4-7.1c2.1,0.2,3.9,1.2,5.2,2.8
					c1.3,1.6,1.9,3.6,1.8,5.7c-0.3,4.5-9.8,108.9-120.6,134.6l0,0C492.7,514.8,479.2,516.3,466.7,516.3z M339.8,440.5
					c-0.1,0-0.2,0-0.3,0.1c-0.2,0.1-0.3,0.5-0.1,0.7c6.2,9.2,62.3,87.2,166.1,63.2c104-24.1,114.3-117.5,115.1-128.1l-0.5-0.7
					c-0.3-0.1-0.6,0.2-0.6,0.5c-0.3,4.2-8.9,102.9-114.3,127.3c-13.6,3.1-26.4,4.5-38.4,4.5c-78.6,0-121.3-59.5-126.6-67.2
					C340.2,440.6,340,440.5,339.8,440.5z"/>
			</g>
		</g>
	</g>
	<g>
		<path class="st0" d="M165.1,150.5l12.7,8.4l-11.2,16.9l43.8,29.2l-9.8,14.7l-43.8-29.2l-11.2,16.9l-12.7-8.4L165.1,150.5z"/>
		<path class="st0" d="M196.1,165.1c-7.3-7.2-11.3-15.1-11.8-23.7c-0.6-9.1,2.7-17.4,10.1-24.9c7.3-7.4,15.5-10.9,24.6-10.5
			c8.7,0.4,16.7,4.2,24,11.3c7.3,7.2,11.3,15.1,11.8,23.7c0.6,9.1-2.7,17.4-10.1,24.9c-7.3,7.4-15.5,10.9-24.6,10.5
			C211.4,176.1,203.4,172.3,196.1,165.1z M208.5,152.5c4,3.9,8.2,6.3,12.4,7.1c4.9,0.9,9.3-0.5,13-4.3c3.7-3.8,5.1-8.2,4.1-13.1
			c-0.9-4.2-3.3-8.3-7.4-12.3c-4-3.9-8.2-6.3-12.4-7.1c-4.9-0.9-9.3,0.5-13,4.3c-3.7,3.8-5.1,8.2-4.1,13.1
			C202,144.5,204.5,148.6,208.5,152.5z"/>
		<path class="st0" d="M270.4,138l-36.1-57.5l22.1-13.8l34,32.2l-14-44.7l22.1-13.8l36,57.5l-14.1,8.8l-27.4-43.7l15.1,51.4
			l-11.5,7.2l-39.5-36.1l27.2,43.8L270.4,138z"/>
		<path class="st0" d="M342.9,95l-21.6-64.4l17.2-5.8L374.2,57L361,17.3l15.8-5.3l21.6,64.4l-17.2,5.8l-35.8-32.6l13.3,40.2
			L342.9,95z"/>
		<path class="st0" d="M451.9,0.4l2,15.1l-20.1,2.6l6.9,52.2l-17.5,2.3l-6.9-52.2l-20.1,2.6l-2-15.1L451.9,0.4z"/>
		<path class="st0" d="M461.3,33.4c0.6-10.2,4-18.4,10.1-24.5c6.5-6.5,14.9-9.4,25.4-8.8c10.4,0.6,18.4,4.5,24.1,11.7
			c5.4,6.9,7.9,15.4,7.2,25.5c-0.6,10.2-4,18.4-10.1,24.5c-6.5,6.5-14.9,9.4-25.4,8.8c-10.4-0.6-18.4-4.5-24.1-11.7
			C463.2,52.1,460.7,43.6,461.3,33.4z M479,34.4c-0.3,5.6,0.6,10.3,2.8,14c2.5,4.3,6.5,6.6,11.8,7c5.3,0.3,9.5-1.5,12.5-5.5
			c2.6-3.5,4.1-8,4.4-13.6c0.3-5.6-0.6-10.3-2.8-14c-2.5-4.3-6.5-6.7-11.8-7c-5.3-0.3-9.5,1.5-12.5,5.5
			C480.8,24.3,479.3,28.8,479,34.4z"/>
		<path class="st0" d="M528.7,71.2L548,6.1l25,7.4l-1.7,46.7l24.3-40l25,7.4l-19.3,65.1l-16-4.7l14.6-49.4l-28.5,45.3L558.5,80
			l1-53.5l-14.8,49.4L528.7,71.2z"/>
		<path class="st0" d="M616.8,75.6l15.4,8.7c-1.8,3.3-2.1,6.3-0.9,9c1.1,2.4,3.4,4.5,6.9,6.5c2.7,1.5,5.1,2.3,7.2,2.3
			c2.6,0.1,4.5-0.9,5.6-3c1.4-2.6,0-6.1-4.3-10.6c-3.4-3.3-6.1-5.8-7.9-7.6c-5.8-5.8-9.1-10.9-9.9-15.4c-0.7-3.7,0-7.6,2.2-11.4
			c3.3-6,8.6-9.1,15.6-9.4c6-0.3,12.2,1.4,18.6,5c6.5,3.7,11.1,8.2,13.7,13.6c3,6.2,2.8,12.5-0.7,18.8L663,73.4
			c1.4-2.5,1.5-4.8,0.3-7c-1.2-2.2-3.1-4-5.8-5.5c-2-1.2-3.9-1.8-5.5-1.8c-2.2,0-3.8,0.8-4.8,2.7c-1.2,2.2,0.4,5.5,4.8,9.9
			c2.7,2.5,5.3,5,8,7.5c4.4,4.4,7.3,8.4,8.8,12c1.9,4.9,1.6,9.8-1.2,14.7c-3.9,7-9.5,10.6-16.7,11c-6.1,0.4-12.8-1.6-20.2-5.7
			c-7.5-4.2-12.5-9.1-15.2-14.9C612.3,89.7,612.8,82.8,616.8,75.6z"/>
	</g>
	<g>
		<path class="st0" d="M210.4,620.8l12.3,12.7c-2.7,2.6-3.8,5.4-3.4,8.4c0.4,2.6,2,5.3,4.8,8.2c2.1,2.2,4.2,3.6,6.3,4.3
			c2.4,0.8,4.5,0.4,6.3-1.3c2.1-2.1,1.8-5.9-1.1-11.4c-2.4-4.2-4.2-7.3-5.4-9.5c-3.9-7.2-5.6-13-5.1-17.6c0.4-3.8,2.1-7.2,5.3-10.3
			c4.9-4.8,10.8-6.3,17.7-4.6c5.8,1.4,11.3,4.8,16.4,10.1c5.2,5.4,8.3,11,9.3,16.9c1.2,6.8-0.9,12.8-6,17.8l-12.3-12.7
			c2-2,2.8-4.2,2.2-6.6c-0.6-2.4-1.9-4.7-4-6.9c-1.6-1.7-3.2-2.8-4.8-3.3c-2.1-0.7-3.8-0.3-5.3,1.2c-1.8,1.8-1.2,5.4,1.8,10.8
			c1.8,3.2,3.7,6.3,5.5,9.5c3,5.5,4.6,10.2,5,14c0.5,5.3-1.3,9.9-5.3,13.8c-5.7,5.6-12.1,7.5-19.1,5.8c-5.9-1.4-11.9-5.1-17.8-11.2
			c-6-6.1-9.4-12.3-10.4-18.6C202.1,633,204.5,626.6,210.4,620.8z"/>
		<path class="st0" d="M244.7,688.2l26.9-41.4l13.2,8.5l-3.6,5.6c2.7-1.2,5.5-1.7,8.4-1.6c2.9,0.1,5.6,1,8.1,2.6
			c2.8,1.8,4.9,3.9,6.3,6.3c1.4,2.4,1.8,5.1,1.4,8.2c6.2-2.3,12-1.7,17.3,1.7c4.6,3,7.3,6.4,8.1,10.2c1,4.7-0.7,10.4-5.1,17.1
			l-16,24.7l-13.6-8.8l15.8-24.4c1.4-2.2,2-4.2,1.9-6.2c-0.2-1.9-1.1-3.5-2.9-4.6c-2.7-1.7-5.1-1.9-7.3-0.4
			c-1.7,1.1-3.8,3.6-6.3,7.5l-13.2,20.3l-13.6-8.8l15.3-23.6c1.7-2.6,2.5-4.8,2.6-6.7c0.1-1.9-0.8-3.4-2.6-4.6
			c-2.5-1.6-4.8-1.9-7-0.9c-2.2,1-4.6,3.6-7.3,7.7L258.2,697L244.7,688.2z"/>
		<path class="st0" d="M323.5,734.9l19.5-45.3l14.8,6.4l-19.5,45.3L323.5,734.9z M365.2,678.9l-4.9,11.3l-14.8-6.4l4.9-11.4
			L365.2,678.9z"/>
		<path class="st0" d="M348.8,745.4l22.1-64.2l15.3,5.3l-22.1,64.2L348.8,745.4z"/>
		<path class="st0" d="M429.3,744.9l-35.5-7.5c-0.7,3.3-0.3,6.2,1.2,8.5c1.5,2.4,3.9,3.9,7.2,4.6c2,0.4,3.9,0.4,5.7-0.2
			c1.8-0.6,3.2-1.6,4.3-3.2l15,3.2c-2.5,5-6.4,8.5-11.6,10.3c-4.8,1.6-10,1.9-15.8,0.7c-8-1.7-13.9-5.3-17.7-10.7
			c-3.9-5.7-5-12.5-3.4-20.5c1.5-7.3,5.3-12.8,11.4-16.6c6.1-3.7,12.7-4.8,20-3.3c8.3,1.7,14,5.9,17.3,12.6
			C430.5,728.9,431.1,736.3,429.3,744.9z M395.7,728.6l19.6,4.1c0.6-2.7,0.2-5.2-1.2-7.5c-1.4-2.3-3.4-3.7-6.1-4.3
			c-2.8-0.6-5.3-0.2-7.4,1.2C398.5,723.5,396.9,725.7,395.7,728.6z"/>
		<path class="st0" d="M527,720.9l-17.7,1.2c-0.7-3.3-2.3-5.8-4.8-7.4c-2.6-1.6-5.7-2.3-9.5-2.1c-5.3,0.4-9.2,2.7-11.7,7.1
			c-2.2,3.8-3.1,8.5-2.7,14.1c0.4,5.6,1.9,10.1,4.5,13.6c3.1,4,7.3,5.8,12.6,5.4c8.4-0.6,12.7-5,12.8-13.3l17.7-1.2
			c0.6,8.4-2,15.4-7.6,20.9c-5.4,5.2-12.6,8.2-21.4,8.8c-10.1,0.7-18.4-2.1-25.1-8.5c-6.7-6.3-10.4-14.5-11-24.5
			c-0.7-10,1.9-18.6,7.7-25.8c5.8-7.1,13.7-11.1,23.8-11.7c8-0.5,15.1,1.2,21.4,5.2C522.7,707.1,526.4,713.2,527,720.9z"/>
		<path class="st0" d="M547.6,724.9l-14.6,3.8c-0.8-3-0.8-5.8,0.1-8.4c0.7-2.3,2-4.3,3.9-6.2c1.9-1.8,4-3.3,6.4-4.5
			c2.4-1.2,5.1-2.2,8.1-2.9c6.8-1.8,12.2-2.1,16.1-1.1c5.3,1.4,8.7,5.2,10.3,11.4l5.4,20.9c0.8,3,1.5,5.3,2.1,7
			c0.6,1.7,1.6,3.3,2.9,4.8l-15.8,4.1c-0.4-0.5-0.8-1.4-1.3-2.4c-0.5-1.1-0.7-1.7-0.8-1.9c-1.4,2.5-3.3,4.6-5.8,6.2
			c-2.5,1.7-5.3,2.9-8.4,3.7c-4.8,1.3-9,1.1-12.5-0.5c-3.8-1.7-6.3-4.9-7.5-9.7c-2-7.7,1.5-13.7,10.5-18c6.2-2.6,10.5-4.5,13.1-5.7
			c1.3-0.7,2.3-1.4,2.8-2.2c0.5-0.8,0.6-1.9,0.2-3.3c-0.4-1.6-1.5-2.6-3.3-3.1c-1.8-0.4-3.6-0.4-5.5,0
			C549.3,718,547.2,720.7,547.6,724.9z M551.6,744.4c0.5,1.8,1.4,3,2.9,3.6c1.5,0.6,3.2,0.6,5.1,0.1c3.7-1,5.9-2.7,6.7-5.2
			c0.8-2.5,0.6-6.3-0.7-11.4c-0.8,0.8-2.1,1.7-4,2.6c-3.3,1.7-5.1,2.5-5.1,2.5c-1.9,1-3.2,2-4.1,3.1
			C551.5,741.2,551.2,742.7,551.6,744.4z"/>
		<path class="st0" d="M601.7,746.1L579.5,702l14-7l3,5.9c0.3-2.9,1.3-5.6,2.9-8c1.6-2.5,3.7-4.3,6.3-5.7c3-1.5,5.9-2.3,8.6-2.3
			c2.8,0,5.4,1,7.8,3c1.2-6.6,4.6-11.2,10.2-14.1c4.9-2.5,9.2-3.1,12.9-1.8c4.5,1.5,8.6,5.8,12.2,13l13.2,26.3l-14.5,7.3l-13.1-26
			c-1.2-2.3-2.6-3.9-4.4-4.7c-1.8-0.8-3.6-0.8-5.4,0.2c-2.8,1.4-4.2,3.5-4.1,6.1c0.1,2,1.2,5.1,3.3,9.2l10.9,21.6l-14.5,7.3
			l-12.6-25.1c-1.4-2.7-2.8-4.6-4.4-5.6c-1.6-1-3.3-1-5.2-0.1c-2.7,1.3-4.1,3.2-4.3,5.5c-0.2,2.4,0.8,5.8,3,10.2l10.8,21.6
			L601.7,746.1z"/>
		<path class="st0" d="M693.7,714.3l-41.6-51.1l11.9-9.7l3.6,4.4c-0.3-5.9,1.7-10.6,6.2-14.2c5.6-4.6,11.8-6,18.3-4.1
			c5.8,1.6,11.1,5.4,16,11.3c4.4,5.4,6.7,10.9,7,16.7c0.3,6.4-2.1,11.7-7.3,15.9c-4.7,3.8-9.7,5-15.2,3.7l13.7,17.1L693.7,714.3z
			 M678.7,655.6c-2,1.7-3.2,3.8-3.4,6.3c-0.3,3.2,1.1,6.6,4,10.2c2.9,3.6,5.7,5.9,8.5,6.8c2.7,0.9,5.4,0.3,8.2-2
			c2.6-2.1,3.6-4.9,3-8.3c-0.5-2.9-2-5.9-4.4-8.9c-2.3-2.8-4.7-4.7-7.3-5.6C684.1,653,681.3,653.5,678.7,655.6z"/>
		<path class="st0" d="M715.1,627.3l-10,11.4c-2.3-2-3.9-4.4-4.6-7c-0.7-2.3-0.8-4.7-0.2-7.3c0.5-2.6,1.4-5,2.8-7.3
			c1.3-2.3,3-4.6,5-7c4.6-5.3,8.9-8.6,12.7-10c5.1-1.8,10.1-0.6,14.9,3.6l16.2,14.2c2.3,2,4.2,3.6,5.7,4.6c1.5,1,3.2,1.8,5.1,2.3
			l-10.8,12.3c-0.6-0.2-1.5-0.6-2.4-1.2c-1-0.6-1.5-1-1.7-1.1c0.3,2.8-0.2,5.6-1.3,8.4c-1.2,2.8-2.8,5.4-4.8,7.7
			c-3.3,3.8-6.8,6-10.6,6.6c-4.1,0.7-8-0.6-11.7-3.8c-6-5.2-6.5-12.1-1.5-20.8c3.6-5.6,6.1-9.6,7.6-12.1c0.7-1.3,1.1-2.4,1.1-3.4
			c0-0.9-0.6-1.9-1.7-2.8c-1.2-1.1-2.7-1.3-4.5-0.6c-1.8,0.7-3.3,1.7-4.5,3.1C712.7,620.6,712.5,624,715.1,627.3z M729.5,641.2
			c1.4,1.3,2.9,1.7,4.4,1.3c1.5-0.4,3-1.3,4.3-2.8c2.5-2.8,3.4-5.6,2.6-8.1c-0.7-2.6-3.1-5.6-7-9c-0.2,1.1-0.8,2.6-1.8,4.4
			c-1.8,3.3-2.8,4.9-2.8,5c-1,1.9-1.5,3.5-1.6,4.9C727.5,638.6,728.2,640,729.5,641.2z"/>
		<path class="st0" d="M721.3,564.3l10.2,7l-9.1,13.3l-10.2-7L721.3,564.3z M768.3,616l-40.7-27.9l9.1-13.3l40.7,27.9L768.3,616z"/>
		<path class="st0" d="M762.8,527.2l38.5,19.9c5.5,2.9,9.3,6.2,11.3,9.9c3.3,6.1,2.7,13.7-2,22.7c-3.1,6-6.4,10.2-9.7,12.6
			c-4.5,3.1-9.6,3.7-15.4,1.7l7.4-14.4c2,0.6,3.7,0.5,5-0.4c1.3-0.9,2.5-2.5,3.7-4.8c1.6-3.1,1.7-5.7,0.2-7.9
			c-1.1-1.5-3.2-3.2-6.6-4.9l-4.1-2.1c2.8,5.1,2.9,10.2,0.3,15.2c-3.3,6.4-7.9,10.2-13.8,11.4c-5.4,1.1-11.4,0-18-3.4
			c-6.1-3.2-10.3-7.4-12.5-12.8c-2.4-5.7-2.1-11.6,1-17.5c2.7-5.3,7-8,12.8-8.2l-5.4-3L762.8,527.2z M776.5,551.5
			c-3.2-1.6-6-2.3-8.6-2.1c-3.1,0.3-5.4,2-7,5c-1.5,2.9-1.5,5.6,0.1,8.3c1.3,2.3,3.5,4.2,6.6,5.7c2.9,1.5,5.6,2.1,8.1,1.8
			c2.9-0.4,5.1-1.9,6.5-4.8c1.5-2.9,1.6-5.5,0.4-8C781.5,555,779.5,553.1,776.5,551.5z"/>
		<path class="st0" d="M811.9,537.3l-47.1-14.7l4.7-15l6.4,2c-1.9-2.2-3.1-4.9-3.7-8.1c-0.5-3.2-0.4-6.3,0.6-9.3
			c2.2-6.9,5.8-11,11-12.3c3.4-0.9,7.6-0.5,12.5,1l30.2,9.5l-4.8,15.4l-22.8-7.1c-1.2-0.4-2.1-0.7-2.6-0.8c-4.4-1.4-7.4-1.6-9-0.7
			c-1.7,0.9-2.9,2.6-3.7,5.2c-0.9,2.7-0.5,5.1,1,7.1c1.5,2,3.7,3.5,6.5,4.4l25.7,8L811.9,537.3z"/>
	</g>
	<g>
		<g>
			<path class="st1" d="M125.7,321.2c0.5,2.1-0.9,4.1-2.9,4.6c-2.1,0.5-4.1-0.9-4.6-2.9c-0.5-2.1,0.9-4.1,2.9-4.6
				C123.2,317.9,125.2,319.2,125.7,321.2L125.7,321.2z"/>
		</g>
		<g>
			<path class="st1" d="M79.7,385.8c0.5,2.1-0.9,4.1-2.9,4.6c-2.1,0.5-4.1-0.9-4.6-2.9c-0.5-2.1,0.9-4.1,2.9-4.5
				C77.3,382.5,79.3,383.8,79.7,385.8L79.7,385.8z"/>
		</g>
		<g>
			<path class="st1" d="M104.7,325.8c0.5,2.1-0.9,4.1-2.9,4.6c-2.1,0.5-4.1-0.9-4.6-2.9c-0.5-2.1,0.9-4.1,2.9-4.5
				C102.2,322.4,104.3,323.8,104.7,325.8L104.7,325.8z"/>
		</g>
		<g>
			<path class="st1" d="M147.7,489.7c0.8-0.2,1.6-0.1,2.4,0.2l33.7,14.9L172,469.9c-0.5-1.6,0-3.3,1.4-4.3l29.8-21.7l-36.1-7.3
				c-1.6-0.3-2.9-1.7-3-3.3l-3.9-36.7l-24.4,27.6c-1.1,1.2-2.9,1.6-4.4,1l-33.7-14.9l11.7,34.9c0.5,1.6,0,3.3-1.4,4.3l-29.8,21.7
				l36.1,7.3c1.6,0.3,2.9,1.7,3,3.3l3.9,36.6l24.4-27.6C146.2,490.3,146.9,489.9,147.7,489.7L147.7,489.7z M190.9,515.6
				c-0.8,0.2-1.6,0.1-2.4-0.2l-39.1-17.3l-28.3,32c-1,1.1-2.6,1.6-4,1.1c-1.4-0.5-2.5-1.7-2.6-3.2l-4.6-42.5L68.1,477
				c-1.5-0.3-2.7-1.5-3-2.9c-0.3-1.5,0.3-3,1.5-3.9l34.5-25.2l-13.6-40.5c-0.5-1.4-0.1-3,1.1-4c1.1-1,2.7-1.3,4.1-0.7l39.1,17.3
				l28.3-32c1-1.1,2.6-1.6,4-1.1c1.4,0.5,2.5,1.7,2.6,3.2l4.6,42.5l41.9,8.5c1.5,0.3,2.7,1.5,3,2.9c0.3,1.5-0.3,3-1.5,3.9
				l-34.5,25.2l13.6,40.5c0.5,1.4,0.1,3-1.1,4C192.2,515.2,191.6,515.5,190.9,515.6L190.9,515.6z"/>
		</g>
		<g>
			<path class="st1" d="M143.7,471.8c0.8-0.2,1.6-0.1,2.4,0.2l12.9,5.7l-4.5-13.4c-0.5-1.6,0-3.3,1.4-4.3l11.4-8.3l-13.8-2.8
				c-1.6-0.3-2.9-1.7-3-3.3l-1.5-14l-9.3,10.6c-1.1,1.2-2.9,1.6-4.4,1l-12.9-5.7l4.5,13.4c0.5,1.6,0,3.3-1.4,4.3l-11.4,8.3l13.8,2.8
				c1.6,0.3,2.9,1.7,3,3.3l1.5,14l9.3-10.6C142.2,472.3,143,471.9,143.7,471.8L143.7,471.8z M166.2,488.5c-0.8,0.2-1.6,0.1-2.4-0.2
				l-18.3-8.1l-13.2,15c-1,1.1-2.6,1.6-4,1.1c-1.4-0.5-2.5-1.7-2.6-3.2l-2.1-19.9l-19.6-4c-1.5-0.3-2.7-1.5-3-2.9s0.3-3,1.5-3.9
				l16.1-11.8l-6.4-18.9c-0.5-1.4-0.1-3,1.1-4c1.1-1,2.7-1.3,4.1-0.7l18.3,8.1l13.2-15c1-1.1,2.6-1.6,4-1.1c1.4,0.5,2.5,1.7,2.6,3.2
				l2.1,19.9l19.6,4c1.5,0.3,2.7,1.4,3,2.9s-0.3,3-1.5,3.9l-16.1,11.8l6.3,18.9c0.5,1.4,0.1,3-1,4
				C167.4,488,166.8,488.3,166.2,488.5L166.2,488.5z"/>
		</g>
		<g>
			<path class="st1" d="M129,404.4c-2.1,0.5-4.1-0.9-4.6-2.9l-18.2-83.3c-0.5-2.1,0.9-4.1,2.9-4.6c2.1-0.5,4.1,0.9,4.6,2.9
				l18.2,83.3C132.4,401.9,131,403.9,129,404.4L129,404.4z"/>
		</g>
		<g>
			<path class="st1" d="M119.4,360.4c-1,0.2-2,0.1-2.9-0.5c-1.8-1.1-2.3-3.5-1.2-5.3l15.6-24.3c1.1-1.8,3.5-2.3,5.3-1.2
				c1.8,1.1,2.3,3.5,1.2,5.3l-15.6,24.3C121.2,359.6,120.3,360.2,119.4,360.4L119.4,360.4z"/>
		</g>
		<g>
			<path class="st1" d="M119.4,360.4c-1,0.2-2,0.1-2.9-0.5l-24.3-15.6c-1.8-1.1-2.3-3.5-1.2-5.3c1.1-1.8,3.5-2.3,5.3-1.2l24.3,15.6
				c1.8,1.1,2.3,3.5,1.2,5.3C121.2,359.6,120.3,360.2,119.4,360.4L119.4,360.4z"/>
		</g>
		<g>
			<path class="st1" d="M119.4,360.4c-1,0.2-2,0.1-2.9-0.5c-1.8-1.1-2.3-3.5-1.2-5.3l15.6-24.3c1.1-1.8,3.5-2.3,5.3-1.2
				c1.8,1.1,2.3,3.5,1.2,5.3l-15.6,24.3C121.2,359.6,120.3,360.2,119.4,360.4L119.4,360.4z"/>
		</g>
		<g>
			<path class="st1" d="M119.4,360.4c-1,0.2-2,0.1-2.9-0.5l-24.3-15.6c-1.8-1.1-2.3-3.5-1.2-5.3c1.1-1.8,3.5-2.3,5.3-1.2l24.3,15.6
				c1.8,1.1,2.3,3.5,1.2,5.3C121.2,359.6,120.3,360.2,119.4,360.4L119.4,360.4z"/>
		</g>
		<g>
			<path class="st1" d="M125.1,386.6c-1,0.2-2,0.1-2.9-0.5c-1.8-1.1-2.3-3.5-1.2-5.3l24.4-38.1c1.1-1.8,3.5-2.3,5.3-1.2
				c1.8,1.1,2.3,3.5,1.2,5.3l-24.4,38.1C126.9,385.8,126,386.4,125.1,386.6L125.1,386.6z"/>
		</g>
		<g>
			<path class="st1" d="M125.1,386.6c-1,0.2-2,0.1-2.9-0.5l-38.1-24.4c-1.8-1.1-2.3-3.5-1.2-5.3c1.1-1.8,3.5-2.3,5.3-1.2l38.1,24.4
				c1.8,1.1,2.3,3.5,1.2,5.3C126.9,385.8,126,386.4,125.1,386.6L125.1,386.6z"/>
		</g>
		<g>
			<path class="st1" d="M15.1,402.3c2,0.6,3.1,2.8,2.5,4.8c-0.6,2-2.8,3.1-4.8,2.5c-2-0.6-3.1-2.8-2.5-4.8
				C10.9,402.8,13.1,401.7,15.1,402.3L15.1,402.3z"/>
		</g>
		<g>
			<path class="st1" d="M48.1,474.4c2,0.6,3.1,2.8,2.5,4.8c-0.6,2-2.8,3.1-4.8,2.5c-2-0.6-3.1-2.8-2.5-4.8
				C43.9,474.9,46.1,473.8,48.1,474.4L48.1,474.4z"/>
		</g>
		<g>
			<path class="st1" d="M8.6,422.8c2,0.6,3.1,2.8,2.5,4.8c-0.6,2-2.8,3.1-4.8,2.5c-2-0.6-3.1-2.8-2.5-4.8
				C4.4,423.2,6.6,422.1,8.6,422.8L8.6,422.8z"/>
		</g>
		<g>
			<path class="st1" d="M85.9,443.6c-0.6,0.1-1.3,0.1-2-0.1L2.7,417.7c-2-0.6-3.1-2.8-2.5-4.8c0.6-2,2.8-3.1,4.8-2.5l81.3,25.9
				c2,0.6,3.1,2.8,2.5,4.8C88.3,442.4,87.2,443.3,85.9,443.6L85.9,443.6z"/>
		</g>
		<g>
			<path class="st1" d="M43,430c-1.7,0.4-3.4-0.4-4.2-2l-13.3-25.7c-1-1.9-0.2-4.2,1.6-5.2c1.9-1,4.2-0.2,5.2,1.6l13.3,25.7
				c1,1.9,0.2,4.2-1.6,5.2C43.7,429.8,43.4,429.9,43,430L43,430z"/>
		</g>
		<g>
			<path class="st1" d="M17.4,443.3c-1.7,0.4-3.4-0.4-4.2-2c-1-1.9-0.2-4.2,1.6-5.2l25.7-13.3c1.9-1,4.2-0.2,5.2,1.6
				c1,1.9,0.2,4.2-1.6,5.2l-25.7,13.3C18,443.1,17.7,443.2,17.4,443.3L17.4,443.3z"/>
		</g>
		<g>
			<path class="st1" d="M43,430c-1.7,0.4-3.4-0.4-4.2-2l-13.3-25.7c-1-1.9-0.2-4.2,1.6-5.2c1.9-1,4.2-0.2,5.2,1.6l13.3,25.7
				c1,1.9,0.2,4.2-1.6,5.2C43.7,429.8,43.4,429.9,43,430L43,430z"/>
		</g>
		<g>
			<path class="st1" d="M17.4,443.3c-1.7,0.4-3.4-0.4-4.2-2c-1-1.9-0.2-4.2,1.6-5.2l25.7-13.3c1.9-1,4.2-0.2,5.2,1.6
				c1,1.9,0.2,4.2-1.6,5.2l-25.7,13.3C18,443.1,17.7,443.2,17.4,443.3L17.4,443.3z"/>
		</g>
		<g>
			<path class="st1" d="M68.5,438.1c-1.6,0.4-3.4-0.4-4.2-2L43.6,396c-1-1.9-0.2-4.2,1.6-5.2c1.9-1,4.2-0.2,5.2,1.6l20.8,40.2
				c1,1.9,0.2,4.2-1.6,5.2C69.2,437.9,68.9,438,68.5,438.1L68.5,438.1z"/>
		</g>
		<g>
			<path class="st1" d="M28.4,458.9c-1.7,0.4-3.4-0.4-4.2-2c-1-1.9-0.2-4.2,1.6-5.2L66,431c1.9-1,4.2-0.2,5.2,1.6
				c1,1.9,0.2,4.2-1.6,5.2l-40.2,20.8C29,458.7,28.7,458.8,28.4,458.9L28.4,458.9z"/>
		</g>
		<g>
			<path class="st1" d="M30,538.7c1.6-1.4,4-1.3,5.4,0.3c1.4,1.6,1.3,4-0.2,5.4c-1.6,1.4-4,1.3-5.4-0.3
				C28.4,542.5,28.5,540.1,30,538.7L30,538.7z"/>
		</g>
		<g>
			<path class="st1" d="M109,546.1c1.6-1.4,4-1.3,5.4,0.2c1.4,1.6,1.3,4-0.2,5.4c-1.6,1.4-4,1.3-5.4-0.2
				C107.3,550,107.4,547.5,109,546.1L109,546.1z"/>
		</g>
		<g>
			<path class="st1" d="M44.5,554.5c1.6-1.4,4-1.3,5.4,0.2c1.4,1.6,1.3,4-0.3,5.4c-1.6,1.4-4,1.3-5.4-0.2
				C42.8,558.4,42.9,555.9,44.5,554.5L44.5,554.5z"/>
		</g>
		<g>
			<path class="st1" d="M35.3,558c-1.3,0.3-2.7-0.1-3.7-1.2c-1.4-1.6-1.3-4,0.2-5.4L95,494c1.6-1.4,4-1.3,5.4,0.3
				c1.4,1.6,1.3,4-0.3,5.4l-63,57.5C36.6,557.5,36,557.8,35.3,558L35.3,558z"/>
		</g>
		<g>
			<path class="st1" d="M65.1,530.9c-0.3,0.1-0.7,0.1-1,0.1l-28.9-1.3c-2.1-0.1-3.7-1.9-3.6-4c0.1-2.1,1.9-3.7,4-3.6l28.9,1.3
				c2.1,0.1,3.7,1.9,3.6,4C68,529.1,66.8,530.5,65.1,530.9L65.1,530.9z"/>
		</g>
		<g>
			<path class="st1" d="M63.8,559.7c-0.3,0.1-0.6,0.1-1,0.1c-2.1-0.1-3.7-1.9-3.7-4l1.3-28.9c0.1-2.1,1.9-3.7,4-3.6
				c2.1,0.1,3.7,1.9,3.6,4l-1.3,28.9C66.7,557.9,65.4,559.4,63.8,559.7L63.8,559.7z"/>
		</g>
		<g>
			<path class="st1" d="M65.1,530.9c-0.3,0.1-0.7,0.1-1,0.1l-28.9-1.3c-2.1-0.1-3.7-1.9-3.6-4c0.1-2.1,1.9-3.7,4-3.6l28.9,1.3
				c2.1,0.1,3.7,1.9,3.6,4C68,529.1,66.8,530.5,65.1,530.9L65.1,530.9z"/>
		</g>
		<g>
			<path class="st1" d="M63.8,559.7c-0.3,0.1-0.6,0.1-1,0.1c-2.1-0.1-3.7-1.9-3.7-4l1.3-28.9c0.1-2.1,1.9-3.7,4-3.6
				c2.1,0.1,3.7,1.9,3.6,4l-1.3,28.9C66.7,557.9,65.4,559.4,63.8,559.7L63.8,559.7z"/>
		</g>
		<g>
			<path class="st1" d="M84.9,512.8c-0.3,0.1-0.7,0.1-1,0.1l-45.2-2.1c-2.1-0.1-3.7-1.9-3.6-4c0.1-2.1,1.9-3.8,4-3.7l45.2,2.1
				c2.1,0.1,3.7,1.9,3.7,4C87.8,511,86.6,512.5,84.9,512.8L84.9,512.8z"/>
		</g>
		<g>
			<path class="st1" d="M82.8,558c-0.3,0.1-0.7,0.1-1,0.1c-2.1-0.1-3.7-1.9-3.6-4l2.1-45.2c0.1-2.1,1.9-3.7,4-3.6
				c2.1,0.1,3.7,1.9,3.7,4l-2.1,45.2C85.7,556.2,84.5,557.6,82.8,558L82.8,558z"/>
		</g>
		<g>
			<path class="st1" d="M155.6,593.9c-0.5-2.1,0.9-4.1,2.9-4.6c2.1-0.5,4.1,0.9,4.5,2.9c0.5,2.1-0.9,4.1-2.9,4.6
				C158,597.2,156,595.9,155.6,593.9L155.6,593.9z"/>
		</g>
		<g>
			<path class="st1" d="M201.5,529.3c-0.5-2.1,0.9-4.1,2.9-4.6c2.1-0.4,4.1,0.9,4.5,2.9c0.5,2.1-0.9,4.1-2.9,4.5
				C204,532.6,201.9,531.3,201.5,529.3L201.5,529.3z"/>
		</g>
		<g>
			<path class="st1" d="M176.5,589.3c-0.5-2.1,0.9-4.1,2.9-4.5c2.1-0.5,4.1,0.9,4.5,2.9c0.5,2.1-0.9,4.1-2.9,4.5
				C179,592.7,177,591.4,176.5,589.3L176.5,589.3z"/>
		</g>
		<g>
			<path class="st1" d="M172.1,601.5c-2.1,0.5-4.1-0.9-4.6-2.9l-18.2-83.3c-0.5-2.1,0.9-4.1,2.9-4.6c2.1-0.5,4.1,0.9,4.6,2.9
				L175,597C175.5,599,174.2,601.1,172.1,601.5L172.1,601.5z"/>
		</g>
		<g>
			<path class="st1" d="M147.9,586.5c-1,0.2-2,0.1-2.9-0.5c-1.8-1.1-2.3-3.5-1.2-5.3l15.6-24.3c1.1-1.8,3.5-2.3,5.3-1.2
				c1.8,1.1,2.3,3.5,1.2,5.3l-15.6,24.3C149.7,585.7,148.9,586.3,147.9,586.5L147.9,586.5z"/>
		</g>
		<g>
			<path class="st1" d="M187.9,577.8c-1,0.2-2,0.1-2.9-0.5l-24.3-15.6c-1.8-1.1-2.3-3.5-1.2-5.3c1.1-1.8,3.5-2.3,5.3-1.2l24.3,15.6
				c1.8,1.1,2.3,3.5,1.2,5.3C189.7,577,188.8,577.6,187.9,577.8L187.9,577.8z"/>
		</g>
		<g>
			<path class="st1" d="M147.9,586.5c-1,0.2-2,0.1-2.9-0.5c-1.8-1.1-2.3-3.5-1.2-5.3l15.6-24.3c1.1-1.8,3.5-2.3,5.3-1.2
				c1.8,1.1,2.3,3.5,1.2,5.3l-15.6,24.3C149.7,585.7,148.9,586.3,147.9,586.5L147.9,586.5z"/>
		</g>
		<g>
			<path class="st1" d="M187.9,577.8c-1,0.2-2,0.1-2.9-0.5l-24.3-15.6c-1.8-1.1-2.3-3.5-1.2-5.3c1.1-1.8,3.5-2.3,5.3-1.2l24.3,15.6
				c1.8,1.1,2.3,3.5,1.2,5.3C189.7,577,188.8,577.6,187.9,577.8L187.9,577.8z"/>
		</g>
		<g>
			<path class="st1" d="M133.4,574.1c-1,0.2-2,0.1-2.9-0.5c-1.8-1.1-2.3-3.5-1.2-5.3l24.4-38.1c1.1-1.8,3.5-2.3,5.3-1.2
				c1.8,1.1,2.3,3.5,1.2,5.3l-24.4,38.1C135.2,573.3,134.3,573.9,133.4,574.1L133.4,574.1z"/>
		</g>
		<g>
			<path class="st1" d="M195.8,560.4c-1,0.2-2,0.1-2.9-0.5l-38.1-24.4c-1.8-1.1-2.3-3.5-1.2-5.3c1.1-1.8,3.5-2.3,5.3-1.2l38.1,24.4
				c1.8,1.1,2.3,3.5,1.2,5.3C197.7,559.6,196.8,560.2,195.8,560.4L195.8,560.4z"/>
		</g>
		<g>
			<path class="st1" d="M266.1,512.8c-2-0.6-3.1-2.8-2.5-4.8c0.6-2,2.8-3.1,4.8-2.5c2,0.6,3.1,2.8,2.5,4.8
				C270.3,512.3,268.2,513.4,266.1,512.8L266.1,512.8z"/>
		</g>
		<g>
			<path class="st1" d="M233.2,440.7c-2-0.6-3.1-2.8-2.5-4.8c0.6-2,2.8-3.1,4.8-2.5c2,0.6,3.1,2.8,2.5,4.8
				C237.3,440.2,235.2,441.3,233.2,440.7L233.2,440.7z"/>
		</g>
		<g>
			<path class="st1" d="M272.7,492.3c-2-0.6-3.1-2.8-2.5-4.8c0.6-2,2.8-3.1,4.8-2.5c2,0.6,3.1,2.8,2.5,4.8
				C276.8,491.9,274.7,493,272.7,492.3L272.7,492.3z"/>
		</g>
		<g>
			<path class="st1" d="M278.2,504.8c-0.6,0.1-1.3,0.1-2-0.1L195,478.9c-2-0.6-3.1-2.8-2.5-4.8c0.6-2,2.8-3.1,4.8-2.5l81.3,25.9
				c2,0.6,3.1,2.8,2.5,4.8C280.6,503.6,279.5,504.6,278.2,504.8L278.2,504.8z"/>
		</g>
		<g>
			<path class="st1" d="M253.1,518.3c-1.6,0.4-3.4-0.4-4.2-2l-13.3-25.7c-1-1.9-0.2-4.2,1.6-5.2c1.9-1,4.2-0.2,5.2,1.6l13.3,25.7
				c1,1.9,0.2,4.2-1.6,5.2C253.8,518.1,253.4,518.2,253.1,518.3L253.1,518.3z"/>
		</g>
		<g>
			<path class="st1" d="M239.8,492.6c-1.7,0.4-3.4-0.4-4.2-2c-1-1.9-0.2-4.2,1.6-5.2l25.7-13.3c1.9-1,4.2-0.2,5.2,1.6
				c1,1.9,0.2,4.2-1.6,5.2l-25.7,13.3C240.5,492.4,240.2,492.5,239.8,492.6L239.8,492.6z"/>
		</g>
		<g>
			<path class="st1" d="M253.1,518.3c-1.6,0.4-3.4-0.4-4.2-2l-13.3-25.7c-1-1.9-0.2-4.2,1.6-5.2c1.9-1,4.2-0.2,5.2,1.6l13.3,25.7
				c1,1.9,0.2,4.2-1.6,5.2C253.8,518.1,253.4,518.2,253.1,518.3L253.1,518.3z"/>
		</g>
		<g>
			<path class="st1" d="M239.8,492.6c-1.7,0.4-3.4-0.4-4.2-2c-1-1.9-0.2-4.2,1.6-5.2l25.7-13.3c1.9-1,4.2-0.2,5.2,1.6
				c1,1.9,0.2,4.2-1.6,5.2l-25.7,13.3C240.5,492.4,240.2,492.5,239.8,492.6L239.8,492.6z"/>
		</g>
		<g>
			<path class="st1" d="M235.1,524.7c-1.7,0.4-3.4-0.4-4.2-2l-20.8-40.2c-1-1.9-0.2-4.2,1.6-5.2c1.9-1,4.2-0.2,5.2,1.6l20.8,40.2
				c1,1.9,0.2,4.2-1.6,5.2C235.7,524.5,235.4,524.6,235.1,524.7L235.1,524.7z"/>
		</g>
		<g>
			<path class="st1" d="M214.3,484.5c-1.7,0.4-3.4-0.4-4.2-2c-1-1.9-0.2-4.2,1.6-5.2l40.2-20.8c1.9-1,4.2-0.2,5.2,1.6
				c1,1.9,0.2,4.2-1.6,5.2l-40.2,20.8C215,484.3,214.6,484.4,214.3,484.5L214.3,484.5z"/>
		</g>
		<g>
			<path class="st1" d="M251.2,376.4c-1.6,1.4-4,1.3-5.4-0.2c-1.4-1.6-1.3-4,0.2-5.4c1.6-1.4,4-1.3,5.4,0.2
				C252.9,372.6,252.8,375,251.2,376.4L251.2,376.4z"/>
		</g>
		<g>
			<path class="st1" d="M172.3,369c-1.6,1.4-4,1.3-5.4-0.2c-1.4-1.6-1.3-4,0.2-5.4c1.6-1.4,4-1.3,5.4,0.2
				C174,365.1,173.8,367.6,172.3,369L172.3,369z"/>
		</g>
		<g>
			<path class="st1" d="M236.8,360.6c-1.6,1.4-4,1.3-5.4-0.3c-1.4-1.6-1.3-4,0.2-5.4c1.6-1.4,4-1.3,5.4,0.2
				C238.4,356.8,238.3,359.2,236.8,360.6L236.8,360.6z"/>
		</g>
		<g>
			<path class="st1" d="M184.5,422c-1.3,0.3-2.7-0.1-3.7-1.2c-1.4-1.6-1.3-4,0.2-5.4l63-57.4c1.6-1.4,4-1.3,5.4,0.3
				c1.4,1.6,1.3,4-0.3,5.4l-63,57.4C185.7,421.6,185.1,421.9,184.5,422L184.5,422z"/>
		</g>
		<g>
			<path class="st1" d="M246.6,393.1c-0.3,0.1-0.7,0.1-1,0.1l-28.9-1.3c-2.1-0.1-3.7-1.9-3.6-4c0.1-2.1,1.9-3.7,4-3.6l28.9,1.3
				c2.1,0.1,3.7,1.9,3.6,4C249.6,391.3,248.3,392.7,246.6,393.1L246.6,393.1z"/>
		</g>
		<g>
			<path class="st1" d="M217.8,391.7c-0.3,0.1-0.7,0.1-1,0.1c-2.1-0.1-3.7-1.9-3.6-4l1.3-28.9c0.1-2.1,1.9-3.7,4-3.6
				c2.1,0.1,3.7,1.9,3.6,4l-1.3,28.9C220.7,389.9,219.4,391.4,217.8,391.7L217.8,391.7z"/>
		</g>
		<g>
			<path class="st1" d="M246.6,393.1c-0.3,0.1-0.7,0.1-1,0.1l-28.9-1.3c-2.1-0.1-3.7-1.9-3.6-4c0.1-2.1,1.9-3.7,4-3.6l28.9,1.3
				c2.1,0.1,3.7,1.9,3.6,4C249.6,391.3,248.3,392.7,246.6,393.1L246.6,393.1z"/>
		</g>
		<g>
			<path class="st1" d="M217.8,391.7c-0.3,0.1-0.7,0.1-1,0.1c-2.1-0.1-3.7-1.9-3.6-4l1.3-28.9c0.1-2.1,1.9-3.7,4-3.6
				c2.1,0.1,3.7,1.9,3.6,4l-1.3,28.9C220.7,389.9,219.4,391.4,217.8,391.7L217.8,391.7z"/>
		</g>
		<g>
			<path class="st1" d="M243.1,411.9c-0.3,0.1-0.7,0.1-1,0.1l-45.2-2.1c-2.1-0.1-3.7-1.9-3.6-4c0.1-2.1,1.9-3.7,4-3.6l45.2,2.1
				c2.1,0.1,3.7,1.9,3.7,4C246.1,410.1,244.8,411.5,243.1,411.9L243.1,411.9z"/>
		</g>
		<g>
			<path class="st1" d="M198,409.8c-0.3,0.1-0.7,0.1-1,0.1c-2.1-0.1-3.7-1.9-3.6-4l2.1-45.2c0.1-2.1,1.9-3.7,4-3.7
				c2.1,0.1,3.7,1.9,3.7,4l-2.1,45.2C200.9,408,199.6,409.4,198,409.8L198,409.8z"/>
		</g>
	</g>
	<g>
		<g>
			<path class="st1" d="M791.9,169.6c0.5,2.1-0.9,4.1-2.9,4.6c-2.1,0.5-4.1-0.9-4.6-2.9c-0.5-2.1,0.9-4.1,2.9-4.6
				C789.4,166.3,791.4,167.6,791.9,169.6L791.9,169.6z"/>
		</g>
		<g>
			<path class="st1" d="M745.9,234.2c0.5,2.1-0.9,4.1-2.9,4.6c-2.1,0.5-4.1-0.9-4.6-2.9c-0.5-2.1,0.9-4.1,2.9-4.5
				C743.5,230.9,745.5,232.2,745.9,234.2L745.9,234.2z"/>
		</g>
		<g>
			<path class="st1" d="M770.9,174.2c0.5,2.1-0.9,4.1-2.9,4.6c-2.1,0.5-4.1-0.9-4.5-2.9c-0.5-2.1,0.9-4.1,2.9-4.6
				C768.4,170.8,770.5,172.1,770.9,174.2L770.9,174.2z"/>
		</g>
		<g>
			<path class="st1" d="M813.9,338.1c0.8-0.2,1.6-0.1,2.4,0.2l33.7,14.9l-11.7-34.9c-0.5-1.6,0-3.3,1.4-4.3l29.8-21.7l-36.1-7.3
				c-1.6-0.3-2.9-1.7-3-3.3l-3.9-36.7l-24.4,27.6c-1.1,1.2-2.9,1.6-4.4,1l-33.7-14.9l11.7,34.9c0.5,1.6,0,3.3-1.4,4.3l-29.8,21.7
				l36.1,7.3c1.6,0.3,2.9,1.7,3,3.3l3.9,36.6l24.4-27.6C812.4,338.7,813.1,338.3,813.9,338.1L813.9,338.1z M857.1,364
				c-0.8,0.2-1.6,0.1-2.4-0.2l-39.1-17.3l-28.3,32c-1,1.1-2.6,1.6-4,1.1c-1.4-0.5-2.5-1.7-2.6-3.2l-4.6-42.5l-41.9-8.5
				c-1.5-0.3-2.7-1.5-3-2.9c-0.3-1.5,0.3-3,1.5-3.9l34.5-25.2l-13.6-40.5c-0.5-1.4-0.1-3,1.1-4c1.1-1,2.7-1.3,4.1-0.7l39.1,17.3
				l28.3-32c1-1.1,2.6-1.6,4-1.1c1.4,0.5,2.5,1.7,2.6,3.2l4.6,42.5l41.9,8.5c1.5,0.3,2.7,1.5,3,2.9c0.3,1.5-0.3,3-1.5,3.9
				l-34.5,25.2l13.6,40.5c0.5,1.4,0.1,3-1.1,4C858.4,363.6,857.8,363.9,857.1,364L857.1,364z"/>
		</g>
		<g>
			<path class="st1" d="M809.9,320.2c0.8-0.2,1.6-0.1,2.4,0.2l12.9,5.7l-4.5-13.4c-0.5-1.6,0-3.3,1.4-4.3l11.4-8.3l-13.8-2.8
				c-1.6-0.3-2.9-1.7-3-3.3l-1.5-14l-9.3,10.6c-1.1,1.2-2.9,1.6-4.4,1l-12.9-5.7l4.5,13.4c0.5,1.6,0,3.3-1.4,4.3l-11.4,8.3l13.8,2.8
				c1.6,0.3,2.9,1.7,3,3.3l1.5,14l9.3-10.6C808.4,320.7,809.1,320.3,809.9,320.2L809.9,320.2z M832.4,336.8
				c-0.8,0.2-1.6,0.1-2.4-0.2l-18.3-8.1l-13.2,15c-1,1.1-2.6,1.6-4,1.1c-1.4-0.5-2.5-1.7-2.6-3.2l-2.1-19.9l-19.6-4
				c-1.5-0.3-2.7-1.5-3-2.9c-0.3-1.5,0.3-3,1.5-3.9l16.1-11.8l-6.4-18.9c-0.5-1.4-0.1-3,1.1-4c1.1-1,2.7-1.3,4.1-0.7l18.3,8.1
				l13.2-15c1-1.1,2.6-1.6,4-1.1c1.4,0.5,2.5,1.7,2.6,3.2l2.1,19.9l19.6,4c1.5,0.3,2.7,1.4,3,2.9c0.3,1.5-0.3,3-1.5,3.9L828.8,313
				l6.3,18.9c0.5,1.4,0.1,3-1,4.1C833.6,336.4,833,336.7,832.4,336.8L832.4,336.8z"/>
		</g>
		<g>
			<path class="st1" d="M795.2,252.8c-2.1,0.5-4.1-0.9-4.6-2.9l-18.2-83.3c-0.5-2.1,0.9-4.1,2.9-4.6c2.1-0.5,4.1,0.9,4.6,2.9
				l18.2,83.3C798.5,250.3,797.2,252.3,795.2,252.8L795.2,252.8z"/>
		</g>
		<g>
			<path class="st1" d="M785.6,208.8c-1,0.2-2,0.1-2.9-0.5c-1.8-1.1-2.3-3.5-1.2-5.3l15.6-24.3c1.1-1.8,3.5-2.3,5.3-1.2
				c1.8,1.1,2.3,3.5,1.2,5.3L788,207.1C787.4,208,786.5,208.6,785.6,208.8L785.6,208.8z"/>
		</g>
		<g>
			<path class="st1" d="M785.6,208.8c-1,0.2-2,0.1-2.9-0.5l-24.3-15.6c-1.8-1.1-2.3-3.5-1.2-5.3c1.1-1.8,3.5-2.3,5.3-1.2l24.3,15.6
				c1.8,1.1,2.3,3.5,1.2,5.3C787.4,208,786.5,208.6,785.6,208.8L785.6,208.8z"/>
		</g>
		<g>
			<path class="st1" d="M785.6,208.8c-1,0.2-2,0.1-2.9-0.5c-1.8-1.1-2.3-3.5-1.2-5.3l15.6-24.3c1.1-1.8,3.5-2.3,5.3-1.2
				c1.8,1.1,2.3,3.5,1.2,5.3L788,207.1C787.4,208,786.5,208.6,785.6,208.8L785.6,208.8z"/>
		</g>
		<g>
			<path class="st1" d="M785.6,208.8c-1,0.2-2,0.1-2.9-0.5l-24.3-15.6c-1.8-1.1-2.3-3.5-1.2-5.3c1.1-1.8,3.5-2.3,5.3-1.2l24.3,15.6
				c1.8,1.1,2.3,3.5,1.2,5.3C787.4,208,786.5,208.6,785.6,208.8L785.6,208.8z"/>
		</g>
		<g>
			<path class="st1" d="M791.3,235c-1,0.2-2,0.1-2.9-0.5c-1.8-1.1-2.3-3.5-1.2-5.3l24.4-38.1c1.1-1.8,3.5-2.3,5.3-1.2
				c1.8,1.1,2.3,3.5,1.2,5.3l-24.4,38.1C793.1,234.2,792.2,234.8,791.3,235L791.3,235z"/>
		</g>
		<g>
			<path class="st1" d="M791.3,235c-1,0.2-2,0.1-2.9-0.5l-38.1-24.4c-1.8-1.1-2.3-3.5-1.2-5.3c1.1-1.8,3.5-2.3,5.3-1.2l38.1,24.4
				c1.8,1.1,2.3,3.5,1.2,5.3C793.1,234.2,792.2,234.8,791.3,235L791.3,235z"/>
		</g>
		<g>
			<path class="st1" d="M681.3,250.7c2,0.6,3.1,2.8,2.5,4.8c-0.6,2-2.8,3.1-4.8,2.5c-2-0.6-3.1-2.8-2.5-4.8
				C677.1,251.2,679.3,250.1,681.3,250.7L681.3,250.7z"/>
		</g>
		<g>
			<path class="st1" d="M714.3,322.8c2,0.6,3.1,2.8,2.5,4.8c-0.6,2-2.8,3.1-4.8,2.5c-2-0.6-3.1-2.8-2.5-4.8
				C710.1,323.3,712.3,322.2,714.3,322.8L714.3,322.8z"/>
		</g>
		<g>
			<path class="st1" d="M674.8,271.2c2,0.6,3.1,2.8,2.5,4.8c-0.6,2-2.8,3.1-4.8,2.5c-2-0.6-3.1-2.8-2.5-4.8
				C670.6,271.6,672.8,270.5,674.8,271.2L674.8,271.2z"/>
		</g>
		<g>
			<path class="st1" d="M752.1,292c-0.6,0.1-1.3,0.1-2-0.1l-81.3-25.9c-2-0.6-3.1-2.8-2.5-4.8c0.6-2,2.8-3.1,4.8-2.5l81.3,25.9
				c2,0.6,3.1,2.8,2.5,4.8C754.5,290.8,753.4,291.7,752.1,292L752.1,292z"/>
		</g>
		<g>
			<path class="st1" d="M709.2,278.4c-1.7,0.4-3.4-0.4-4.2-2l-13.3-25.7c-1-1.9-0.2-4.2,1.6-5.2c1.9-1,4.2-0.2,5.2,1.6l13.3,25.7
				c1,1.9,0.2,4.2-1.6,5.2C709.9,278.2,709.5,278.3,709.2,278.4L709.2,278.4z"/>
		</g>
		<g>
			<path class="st1" d="M683.5,291.6c-1.7,0.4-3.4-0.4-4.2-2c-1-1.9-0.2-4.2,1.6-5.2l25.7-13.3c1.9-1,4.2-0.2,5.2,1.6
				c1,1.9,0.2,4.2-1.6,5.2l-25.7,13.3C684.2,291.5,683.9,291.6,683.5,291.6L683.5,291.6z"/>
		</g>
		<g>
			<path class="st1" d="M709.2,278.4c-1.7,0.4-3.4-0.4-4.2-2l-13.3-25.7c-1-1.9-0.2-4.2,1.6-5.2c1.9-1,4.2-0.2,5.2,1.6l13.3,25.7
				c1,1.9,0.2,4.2-1.6,5.2C709.9,278.2,709.5,278.3,709.2,278.4L709.2,278.4z"/>
		</g>
		<g>
			<path class="st1" d="M683.5,291.6c-1.7,0.4-3.4-0.4-4.2-2c-1-1.9-0.2-4.2,1.6-5.2l25.7-13.3c1.9-1,4.2-0.2,5.2,1.6
				c1,1.9,0.2,4.2-1.6,5.2l-25.7,13.3C684.2,291.5,683.9,291.6,683.5,291.6L683.5,291.6z"/>
		</g>
		<g>
			<path class="st1" d="M734.7,286.5c-1.6,0.4-3.4-0.4-4.2-2l-20.8-40.2c-1-1.9-0.2-4.2,1.6-5.2c1.9-1,4.2-0.2,5.2,1.6l20.8,40.2
				c1,1.9,0.2,4.2-1.6,5.2C735.4,286.3,735.1,286.4,734.7,286.5L734.7,286.5z"/>
		</g>
		<g>
			<path class="st1" d="M694.6,307.3c-1.7,0.4-3.4-0.4-4.2-2c-1-1.9-0.2-4.2,1.6-5.2l40.2-20.8c1.9-1,4.2-0.2,5.2,1.6
				c1,1.9,0.2,4.2-1.6,5.2l-40.2,20.8C695.2,307.1,694.9,307.2,694.6,307.3L694.6,307.3z"/>
		</g>
		<g>
			<path class="st1" d="M696.2,387c1.6-1.4,4-1.3,5.4,0.3c1.4,1.6,1.3,4-0.2,5.4c-1.6,1.4-4,1.3-5.4-0.3
				C694.6,390.9,694.7,388.5,696.2,387L696.2,387z"/>
		</g>
		<g>
			<path class="st1" d="M775.2,394.5c1.6-1.4,4-1.3,5.4,0.2c1.4,1.6,1.3,4-0.2,5.4c-1.6,1.4-4,1.3-5.4-0.2
				C773.5,398.4,773.6,395.9,775.2,394.5L775.2,394.5z"/>
		</g>
		<g>
			<path class="st1" d="M710.7,402.9c1.6-1.4,4-1.3,5.4,0.2c1.4,1.6,1.3,4-0.3,5.4c-1.6,1.4-4,1.3-5.4-0.2
				C709,406.7,709.1,404.3,710.7,402.9L710.7,402.9z"/>
		</g>
		<g>
			<path class="st1" d="M701.5,406.4c-1.3,0.3-2.7-0.1-3.7-1.2c-1.4-1.6-1.3-4,0.2-5.4l63-57.5c1.6-1.4,4-1.3,5.4,0.3
				c1.4,1.6,1.3,4-0.3,5.4l-63,57.4C702.8,405.9,702.2,406.2,701.5,406.4L701.5,406.4z"/>
		</g>
		<g>
			<path class="st1" d="M731.3,379.2c-0.3,0.1-0.7,0.1-1,0.1l-28.9-1.3c-2.1-0.1-3.7-1.9-3.6-4c0.1-2.1,1.9-3.7,4-3.6l28.9,1.3
				c2.1,0.1,3.7,1.9,3.6,4C734.2,377.4,733,378.9,731.3,379.2L731.3,379.2z"/>
		</g>
		<g>
			<path class="st1" d="M730,408.1c-0.3,0.1-0.6,0.1-1,0.1c-2.1-0.1-3.7-1.9-3.7-4l1.3-28.9c0.1-2.1,1.9-3.7,4-3.6
				c2.1,0.1,3.7,1.9,3.6,4l-1.3,28.9C732.9,406.3,731.6,407.8,730,408.1L730,408.1z"/>
		</g>
		<g>
			<path class="st1" d="M731.3,379.2c-0.3,0.1-0.7,0.1-1,0.1l-28.9-1.3c-2.1-0.1-3.7-1.9-3.6-4c0.1-2.1,1.9-3.7,4-3.6l28.9,1.3
				c2.1,0.1,3.7,1.9,3.6,4C734.2,377.4,733,378.9,731.3,379.2L731.3,379.2z"/>
		</g>
		<g>
			<path class="st1" d="M730,408.1c-0.3,0.1-0.6,0.1-1,0.1c-2.1-0.1-3.7-1.9-3.7-4l1.3-28.9c0.1-2.1,1.9-3.7,4-3.6
				c2.1,0.1,3.7,1.9,3.6,4l-1.3,28.9C732.9,406.3,731.6,407.8,730,408.1L730,408.1z"/>
		</g>
		<g>
			<path class="st1" d="M751.1,361.2c-0.3,0.1-0.7,0.1-1,0.1l-45.2-2.1c-2.1-0.1-3.7-1.9-3.6-4c0.1-2.1,1.9-3.8,4-3.7l45.2,2.1
				c2.1,0.1,3.7,1.9,3.7,4C754,359.4,752.8,360.8,751.1,361.2L751.1,361.2z"/>
		</g>
		<g>
			<path class="st1" d="M749,406.4c-0.3,0.1-0.7,0.1-1,0.1c-2.1-0.1-3.7-1.9-3.6-4l2.1-45.2c0.1-2.1,1.9-3.7,4-3.6
				c2.1,0.1,3.7,1.9,3.7,4l-2.1,45.2C751.9,404.6,750.7,406,749,406.4L749,406.4z"/>
		</g>
		<g>
			<path class="st1" d="M821.8,442.3c-0.5-2.1,0.9-4.1,2.9-4.6c2.1-0.5,4.1,0.9,4.5,2.9c0.5,2.1-0.9,4.1-2.9,4.6
				C824.2,445.6,822.2,444.3,821.8,442.3L821.8,442.3z"/>
		</g>
		<g>
			<path class="st1" d="M867.7,377.7c-0.5-2.1,0.9-4.1,2.9-4.6c2.1-0.4,4.1,0.9,4.5,2.9c0.5,2.1-0.9,4.1-2.9,4.5
				C870.2,381,868.1,379.7,867.7,377.7L867.7,377.7z"/>
		</g>
		<g>
			<path class="st1" d="M842.7,437.7c-0.5-2.1,0.9-4.1,2.9-4.5c2.1-0.5,4.1,0.9,4.5,2.9c0.5,2.1-0.9,4.1-2.9,4.5
				C845.2,441.1,843.2,439.8,842.7,437.7L842.7,437.7z"/>
		</g>
		<g>
			<path class="st1" d="M838.3,449.9c-2.1,0.5-4.1-0.9-4.6-2.9l-18.2-83.3c-0.5-2.1,0.9-4.1,2.9-4.6c2.1-0.5,4.1,0.9,4.6,2.9
				l18.2,83.3C841.7,447.4,840.4,449.5,838.3,449.9L838.3,449.9z"/>
		</g>
		<g>
			<path class="st1" d="M814.1,434.9c-1,0.2-2,0.1-2.9-0.5c-1.8-1.1-2.3-3.5-1.2-5.3l15.6-24.3c1.1-1.8,3.5-2.3,5.3-1.2
				c1.8,1.1,2.3,3.5,1.2,5.3l-15.6,24.3C815.9,434.1,815.1,434.7,814.1,434.9L814.1,434.9z"/>
		</g>
		<g>
			<path class="st1" d="M854.1,426.2c-1,0.2-2,0.1-2.9-0.5L826.8,410c-1.8-1.1-2.3-3.5-1.2-5.3c1.1-1.8,3.5-2.3,5.3-1.2l24.3,15.6
				c1.8,1.1,2.3,3.5,1.2,5.3C855.9,425.4,855,426,854.1,426.2L854.1,426.2z"/>
		</g>
		<g>
			<path class="st1" d="M814.1,434.9c-1,0.2-2,0.1-2.9-0.5c-1.8-1.1-2.3-3.5-1.2-5.3l15.6-24.3c1.1-1.8,3.5-2.3,5.3-1.2
				c1.8,1.1,2.3,3.5,1.2,5.3l-15.6,24.3C815.9,434.1,815.1,434.7,814.1,434.9L814.1,434.9z"/>
		</g>
		<g>
			<path class="st1" d="M854.1,426.2c-1,0.2-2,0.1-2.9-0.5L826.8,410c-1.8-1.1-2.3-3.5-1.2-5.3c1.1-1.8,3.5-2.3,5.3-1.2l24.3,15.6
				c1.8,1.1,2.3,3.5,1.2,5.3C855.9,425.4,855,426,854.1,426.2L854.1,426.2z"/>
		</g>
		<g>
			<path class="st1" d="M799.6,422.5c-1,0.2-2,0.1-2.9-0.5c-1.8-1.1-2.3-3.5-1.2-5.3l24.4-38.1c1.1-1.8,3.5-2.3,5.3-1.2
				c1.8,1.1,2.3,3.5,1.2,5.3L802,420.8C801.4,421.7,800.5,422.3,799.6,422.5L799.6,422.5z"/>
		</g>
		<g>
			<path class="st1" d="M862,408.8c-1,0.2-2,0.1-2.9-0.5l-38.1-24.4c-1.8-1.1-2.3-3.5-1.2-5.3c1.1-1.8,3.5-2.3,5.3-1.2l38.1,24.4
				c1.8,1.1,2.3,3.5,1.2,5.3C863.9,408,863,408.6,862,408.8L862,408.8z"/>
		</g>
		<g>
			<path class="st1" d="M932.3,361.2c-2-0.6-3.1-2.8-2.5-4.8c0.6-2,2.8-3.1,4.8-2.5c2,0.6,3.1,2.8,2.5,4.8
				C936.5,360.7,934.4,361.8,932.3,361.2L932.3,361.2z"/>
		</g>
		<g>
			<path class="st1" d="M899.4,289.1c-2-0.6-3.1-2.8-2.5-4.8c0.6-2,2.8-3.1,4.8-2.5c2,0.6,3.1,2.8,2.5,4.8
				C903.5,288.6,901.4,289.7,899.4,289.1L899.4,289.1z"/>
		</g>
		<g>
			<path class="st1" d="M938.8,340.7c-2-0.6-3.1-2.8-2.5-4.8c0.6-2,2.8-3.1,4.8-2.5c2,0.6,3.1,2.8,2.5,4.8
				C943,340.3,940.9,341.4,938.8,340.7L938.8,340.7z"/>
		</g>
		<g>
			<path class="st1" d="M944.4,353.2c-0.6,0.1-1.3,0.1-2-0.1l-81.3-25.9c-2-0.6-3.1-2.8-2.5-4.8c0.6-2,2.8-3.1,4.8-2.5l81.3,25.9
				c2,0.6,3.1,2.8,2.5,4.8C946.8,352,945.7,352.9,944.4,353.2L944.4,353.2z"/>
		</g>
		<g>
			<path class="st1" d="M919.3,366.7c-1.6,0.4-3.4-0.4-4.2-2L901.8,339c-1-1.9-0.2-4.2,1.6-5.2c1.9-1,4.2-0.2,5.2,1.6l13.3,25.7
				c1,1.9,0.2,4.2-1.6,5.2C919.9,366.5,919.6,366.6,919.3,366.7L919.3,366.7z"/>
		</g>
		<g>
			<path class="st1" d="M906,341c-1.7,0.4-3.4-0.4-4.2-2c-1-1.9-0.2-4.2,1.6-5.2l25.7-13.3c1.9-1,4.2-0.2,5.2,1.6
				c1,1.9,0.2,4.2-1.6,5.2L907,340.7C906.7,340.8,906.4,340.9,906,341L906,341z"/>
		</g>
		<g>
			<path class="st1" d="M919.3,366.7c-1.6,0.4-3.4-0.4-4.2-2L901.8,339c-1-1.9-0.2-4.2,1.6-5.2c1.9-1,4.2-0.2,5.2,1.6l13.3,25.7
				c1,1.9,0.2,4.2-1.6,5.2C919.9,366.5,919.6,366.6,919.3,366.7L919.3,366.7z"/>
		</g>
		<g>
			<path class="st1" d="M906,341c-1.7,0.4-3.4-0.4-4.2-2c-1-1.9-0.2-4.2,1.6-5.2l25.7-13.3c1.9-1,4.2-0.2,5.2,1.6
				c1,1.9,0.2,4.2-1.6,5.2L907,340.7C906.7,340.8,906.4,340.9,906,341L906,341z"/>
		</g>
		<g>
			<path class="st1" d="M901.3,373c-1.7,0.4-3.4-0.4-4.2-2l-20.8-40.2c-1-1.9-0.2-4.2,1.6-5.2c1.9-1,4.2-0.2,5.2,1.6l20.8,40.2
				c1,1.9,0.2,4.2-1.6,5.2C901.9,372.9,901.6,373,901.3,373L901.3,373z"/>
		</g>
		<g>
			<path class="st1" d="M880.5,332.9c-1.7,0.4-3.4-0.4-4.2-2c-1-1.9-0.2-4.2,1.6-5.2l40.2-20.8c1.9-1,4.2-0.2,5.2,1.6
				c1,1.9,0.2,4.2-1.6,5.2l-40.2,20.8C881.1,332.7,880.8,332.8,880.5,332.9L880.5,332.9z"/>
		</g>
		<g>
			<path class="st1" d="M917.4,224.8c-1.6,1.4-4,1.3-5.4-0.2c-1.4-1.6-1.3-4,0.2-5.4c1.6-1.4,4-1.3,5.4,0.2
				C919.1,221,919,223.4,917.4,224.8L917.4,224.8z"/>
		</g>
		<g>
			<path class="st1" d="M838.5,217.4c-1.6,1.4-4,1.3-5.4-0.2c-1.4-1.6-1.3-4,0.2-5.4c1.6-1.4,4-1.3,5.4,0.2
				C840.2,213.5,840,216,838.5,217.4L838.5,217.4z"/>
		</g>
		<g>
			<path class="st1" d="M903,209c-1.6,1.4-4,1.3-5.4-0.3c-1.4-1.6-1.3-4,0.2-5.4c1.6-1.4,4-1.3,5.4,0.2
				C904.6,205.1,904.5,207.6,903,209L903,209z"/>
		</g>
		<g>
			<path class="st1" d="M850.7,270.4c-1.3,0.3-2.7-0.1-3.6-1.2c-1.4-1.6-1.3-4,0.2-5.4l63-57.4c1.6-1.4,4-1.3,5.4,0.3
				c1.4,1.6,1.3,4-0.3,5.4l-63,57.4C851.9,270,851.3,270.3,850.7,270.4L850.7,270.4z"/>
		</g>
		<g>
			<path class="st1" d="M912.8,241.5c-0.3,0.1-0.7,0.1-1,0.1l-28.9-1.3c-2.1-0.1-3.7-1.9-3.6-4c0.1-2.1,1.9-3.7,4-3.6l28.9,1.3
				c2.1,0.1,3.7,1.9,3.6,4C915.8,239.7,914.5,241.1,912.8,241.5L912.8,241.5z"/>
		</g>
		<g>
			<path class="st1" d="M884,240.1c-0.3,0.1-0.7,0.1-1,0.1c-2.1-0.1-3.7-1.9-3.6-4l1.3-28.9c0.1-2.1,1.9-3.7,4-3.6
				c2.1,0.1,3.7,1.9,3.6,4l-1.3,28.9C886.9,238.3,885.6,239.8,884,240.1L884,240.1z"/>
		</g>
		<g>
			<path class="st1" d="M912.8,241.5c-0.3,0.1-0.7,0.1-1,0.1l-28.9-1.3c-2.1-0.1-3.7-1.9-3.6-4c0.1-2.1,1.9-3.7,4-3.6l28.9,1.3
				c2.1,0.1,3.7,1.9,3.6,4C915.8,239.7,914.5,241.1,912.8,241.5L912.8,241.5z"/>
		</g>
		<g>
			<path class="st1" d="M884,240.1c-0.3,0.1-0.7,0.1-1,0.1c-2.1-0.1-3.7-1.9-3.6-4l1.3-28.9c0.1-2.1,1.9-3.7,4-3.6
				c2.1,0.1,3.7,1.9,3.6,4l-1.3,28.9C886.9,238.3,885.6,239.8,884,240.1L884,240.1z"/>
		</g>
		<g>
			<path class="st1" d="M909.3,260.3c-0.3,0.1-0.7,0.1-1,0.1l-45.2-2.1c-2.1-0.1-3.7-1.9-3.6-4c0.1-2.1,1.9-3.7,4-3.6l45.2,2.1
				c2.1,0.1,3.7,1.9,3.7,4C912.3,258.5,911,259.9,909.3,260.3L909.3,260.3z"/>
		</g>
		<g>
			<path class="st1" d="M864.2,258.2c-0.3,0.1-0.7,0.1-1,0.1c-2.1-0.1-3.7-1.9-3.6-4l2.1-45.2c0.1-2.1,1.9-3.7,4-3.7
				c2.1,0.1,3.7,1.9,3.7,4l-2.1,45.2C867.1,256.4,865.8,257.8,864.2,258.2L864.2,258.2z"/>
		</g>
	</g>
</g>
</svg>
