<?xml version="1.0" encoding="utf-8"?>
<!-- Generator: Adobe Illustrator 16.0.0, SVG Export Plug-In . SVG Version: 6.00 Build 0)  -->
<!DOCTYPE svg PUBLIC "-//W3C//DTD SVG 1.1//EN" "http://www.w3.org/Graphics/SVG/1.1/DTD/svg11.dtd">
<svg version="1.1" id="Layer_1" xmlns="http://www.w3.org/2000/svg" xmlns:xlink="http://www.w3.org/1999/xlink" x="0px" y="0px"
	 width="694.001px" height="50px" viewBox="0 0 694.001 50" enable-background="new 0 0 694.001 50" xml:space="preserve">
<rect fill="none" width="694" height="50"/>
<path fill="#582931" d="M224.325,12.47h15.831v36.318h12.633V12.47h15.826V1.803h-44.29V12.47z M294.183,0.392
	c-12.966,0-23.71,9.351-23.71,24.939c0,15.586,10.744,24.938,23.71,24.938c12.958,0,23.7-9.353,23.7-24.938
	C317.883,9.743,307.141,0.392,294.183,0.392 M294.183,39.623c-6.015,0-11.118-4.443-11.118-14.292
	c0-9.854,5.104-14.298,11.118-14.298c6.011,0,11.115,4.444,11.115,14.298C305.298,35.18,300.193,39.623,294.183,39.623 M0,12.368
	h15.833v36.322h12.631V12.368h15.827V1.699H0V12.368z M196.007,30.721L179.125,1.817V1.81h-13.462v46.993h11.792V19.757
	l16.949,29.045h13.395V1.81h-11.792V30.721z M69.826,0.291c-12.963,0-23.708,9.351-23.708,24.938
	c0,15.589,10.744,24.938,23.708,24.938c12.963,0,23.708-9.349,23.708-24.938C93.534,9.642,82.789,0.291,69.826,0.291 M69.826,39.524
	c-6.011,0-11.114-4.44-11.114-14.295c0-9.856,5.104-14.292,11.114-14.292c6.009,0,11.118,4.437,11.118,14.292
	C80.944,35.084,75.835,39.524,69.826,39.524 M122.75,23.9l-9.952-22.187H98.478V48.7h11.788V24.262h1.259l7.704,15.913h7.039
	l7.702-15.913h1.262V48.7h11.792V1.713h-14.328L122.75,23.9z M626.973,30.607h21.521V19.933h-21.521V12.47h22.939V1.803h-35.576v47
	h0.004h12.633h23.279V38.139h-23.279V30.607z M573.521,48.803h12.632v-18.6h19.851V19.54h-19.851V12.47h21.605V1.803h-34.237V48.803
	z M669.155,38.139v-7.531h21.518V19.933h-21.518V12.47h22.937V1.803H656.52v47l0,0h12.636h23.28V38.139H669.155z M347.064,24.304
	L337.111,1.81h-14.325v46.993h11.792v-24.44h1.261l7.7,15.915h7.042l7.708-15.915h1.258v24.44h11.791V1.81h-14.329L347.064,24.304z
	 M532.706,48.803h12.632v-18.6h19.843V19.54h-19.843V12.47h21.602V1.803h-34.23L532.706,48.803z M503.971,0.364
	c-12.977,0-23.795,9.366-23.795,24.967c0,15.601,10.818,24.96,23.795,24.96c12.98,0,23.803-9.359,23.803-24.96
	C527.773,9.73,516.951,0.364,503.971,0.364 M503.971,39.623c-6.007,0-11.185-4.259-11.185-14.292
	c0-10.035,5.178-14.298,11.185-14.298c6.015,0,11.188,4.263,11.188,14.298C515.159,35.364,509.985,39.623,503.971,39.623
	 M403.836,20.724c-7.272-2.08-14.373-3.254-14.373-6.08c0-2.093,3.122-3.28,8.091-3.28s12.439,1.543,15.492,4.636h3.535V5.035
	c-4.522-2.351-13.309-4.362-19.656-4.362c-13.411,0-20.062,6.263-20.062,14.407c0,8.05,7.21,11.095,14.606,13.303
	c7.583,2.264,15.269,3.465,15.269,6.891c0,2.619-3.327,4.122-9.484,4.122c-7.298,0-13.916-1.931-17.36-5.02H376.3v10.964
	c4.314,2.238,12.395,4.661,21.777,4.661c13.598,0,21.265-5.962,21.265-14.766C419.342,26.184,411.484,22.905,403.836,20.724
	 M433.736,25.256v0.067c0,12.017,9.203,24.536,26.249,24.536c5.521,0,11.163-1.367,16.388-4.306V34.188h-3.985
	c-3.828,3.164-6.04,5.039-12.402,5.039c-6.593,0-13.646-5.662-13.646-13.971c0-8.779,6.11-13.835,13.082-13.835
	c7.605,0,10.937,3.865,12.966,6.713h3.985V7.088c-4.753-4.905-12.622-6.334-16.951-6.334
	C443.832,0.753,433.736,10.569,433.736,25.256"/>
</svg>
