<?xml version="1.0" encoding="utf-8"?>
<!-- Generator: Adobe Illustrator 16.0.0, SVG Export Plug-In . SVG Version: 6.00 Build 0)  -->
<!DOCTYPE svg PUBLIC "-//W3C//DTD SVG 1.1//EN" "http://www.w3.org/Graphics/SVG/1.1/DTD/svg11.dtd">
<svg version="1.1" id="Layer_1" xmlns="http://www.w3.org/2000/svg" xmlns:xlink="http://www.w3.org/1999/xlink" x="0px" y="0px"
	 width="420px" height="50px" viewBox="0 0 420 50" enable-background="new 0 0 420 50" xml:space="preserve">
<rect fill="none" width="420" height="50"/>
<path fill="#582931" d="M224.325,12.47h15.831v36.318h12.633V12.47h15.826V1.803h-44.29V12.47z M294.183,0.392
	c-12.966,0-23.71,9.351-23.71,24.939c0,15.586,10.744,24.938,23.71,24.938c12.958,0,23.7-9.353,23.7-24.938
	C317.883,9.743,307.141,0.392,294.183,0.392 M294.183,39.623c-6.015,0-11.118-4.443-11.118-14.292
	c0-9.854,5.104-14.298,11.118-14.298c6.011,0,11.115,4.444,11.115,14.298C305.298,35.18,300.193,39.623,294.183,39.623 M0,12.368
	h15.833v36.322h12.631V12.368h15.827V1.699H0V12.368z M196.007,30.721L179.125,1.817V1.81h-13.462v46.993h11.792V19.757
	l16.949,29.045h13.395V1.81h-11.792V30.721z M69.826,0.291c-12.963,0-23.708,9.351-23.708,24.938
	c0,15.589,10.744,24.938,23.708,24.938c12.963,0,23.708-9.349,23.708-24.938C93.534,9.642,82.789,0.291,69.826,0.291 M69.826,39.524
	c-6.011,0-11.114-4.44-11.114-14.295c0-9.856,5.104-14.292,11.114-14.292c6.009,0,11.118,4.437,11.118,14.292
	C80.944,35.084,75.835,39.524,69.826,39.524 M122.75,23.9l-9.952-22.187H98.478V48.7h11.788V24.262h1.259l7.704,15.913h7.039
	l7.702-15.913h1.262V48.7h11.792V1.713h-14.328L122.75,23.9z M347.064,24.304L337.111,1.81h-14.325v46.993h11.792v-24.44h1.261
	l7.7,15.915h7.042l7.708-15.915h1.258v24.44h11.791V1.81h-14.329L347.064,24.304z M403.836,20.724
	c-7.272-2.08-14.373-3.254-14.373-6.08c0-2.093,3.122-3.28,8.091-3.28s12.439,1.543,15.492,4.636h3.535V5.035
	c-4.522-2.351-13.309-4.362-19.656-4.362c-13.411,0-20.062,6.263-20.062,14.407c0,8.05,7.21,11.095,14.606,13.303
	c7.583,2.264,15.269,3.465,15.269,6.891c0,2.619-3.327,4.122-9.484,4.122c-7.298,0-13.916-1.931-17.36-5.02H376.3v10.964
	c4.314,2.238,12.395,4.661,21.777,4.661c13.598,0,21.265-5.962,21.265-14.766C419.342,26.184,411.484,22.905,403.836,20.724"/>
</svg>
